# xmcd CD database file
#
# Track frame offsets:
#	150
#	20625
#	36637
#	65025
#	85467
#	101480
#
# Disc length: 1728 seconds
#
# Revision: 4
# Processed by: cddbd v1.5.2PL0 Copyright (c) Steve Scherf et al.
# Submitted via: CDex 1.70beta3
#
DISCID=5306be06
DTITLE=SPEED - 縺ゅ＠縺溘・遨ｺ
DYEAR=2008
DGENRE=Pop
TTITLE0=縺ゅ＠縺溘・遨ｺ
TTITLE1=SOMETHING NEW
TTITLE2=White Love・朶TEADY・曖ody&Soul 2008
TTITLE3=縺ゅ＠縺溘・遨ｺ(instrumental)
TTITLE4=SOMETHING NEW(instrumental)
TTITLE5=White Love・朶TEADY・曖ody&Soul 2008(instrumental)
EXTD=YEAR: 2008
EXTT0=
EXTT1=
EXTT2=
EXTT3=
EXTT4=
EXTT5=
PLAYORDER=
